/* XPM */
static char *bc33ebf0f8a44e56bcea831b7d243406u6muDyaQbpRFqQJK[] = {
/* columns rows colors chars-per-pixel */
"48 48 72 1 ",
"  c #884728",
". c #894728",
"X c #894828",
"o c #8A4828",
"O c #8A4829",
"+ c #8B4829",
"@ c #8B4929",
"# c #8E4C2A",
"$ c #8F4C2A",
"% c #904C2A",
"& c #904D2A",
"* c #914D2A",
"= c #914D2B",
"- c #924D2B",
"; c #924E2B",
": c #984F2B",
"> c #98502B",
", c #99502B",
"< c #9A502B",
"1 c #9A512B",
"2 c #9A512C",
"3 c #9B512C",
"4 c #9B522C",
"5 c #9C522C",
"6 c #9F552F",
"7 c #9F5530",
"8 c #9F5630",
"9 c #A05630",
"0 c #A15630",
"q c #A15730",
"w c #A15731",
"e c #A25730",
"r c #A25731",
"t c #A35731",
"y c #A25831",
"u c #A35831",
"i c #AA5B31",
"p c #AA5C31",
"a c #AB5C31",
"s c #AB5C32",
"d c #AC5C32",
"f c #AC5D32",
"g c #AD5D32",
"h c #AD5D33",
"j c #AE5D32",
"k c #AE5E32",
"l c #AE5E33",
"z c #AF5E33",
"x c #B66136",
"c c #B76136",
"v c #B76236",
"b c #B86236",
"n c #B96236",
"m c #B86237",
"M c #B96237",
"N c #B96337",
"B c #BA6337",
"V c #BB6337",
"C c #BA6437",
"Z c #BB6437",
"A c #BB6438",
"S c #BD6A3D",
"D c #BE6A3D",
"F c #BE6B3D",
"G c #BF6B3D",
"H c #BF6B3E",
"J c #C06B3E",
"K c #C06C3E",
"L c #C16C3E",
"P c #C26C3F",
"I c #C26D3F",
"U c #C36D3F",
/* pixels */
"BBBlllBBZLLLLLLLLLLLLLLLZBZLLLLLLLLLLLLLLLZBB211",
"BBBlllBBZLLLLLLLLLLLLLLLZBZLLLLLLLLLLLLLLLZBB211",
"BBBlllBBBLLLLLLLLLLLLLLLBBBLLLLLLLLLLLLLLLBBv211",
"BBBBBBllllll52200ulllBZBBBBBZBllllllBZZZZB000000",
"BBBBBBllllll111700lllBBBBBBBBBllllllBBBBBB000000",
"BBBBBBllllll212000lllBBBBBBBBBllllllBBBBBB000000",
"lllBBBBBBBBBlllBBBlll000000000000llllllBBBBBv211",
"lllBBBBBBBBBlllBBBlll000000000000llllllBBBBBB211",
"lllvBBBBBBBBlllvBvlpp777777777777plppplvvvBBv1:1",
"111------222111---XXXXXX------XXX---XXXXXX---X  ",
"111$$$$$$111111$$$      $$$$$$   $$$      $$$   ",
"222------222222---XXXXXX------XXX---XXXXXX---XXX",
"BBBHJH070HLLLLJHHHHHH060HJHHHHHHHBBvlppppp070vBv",
"BBZLLL000LLLLLLLLLLLL000LLLLLLLLLZBBllllll000BBB",
"BBBLLJu0uHLLLLLLLLLLH070HLLLLLLLLBBBllllll000BBB",
"lllBZBBBBlllu0ulllu0021200ullllllBBBBBBBBBBBBlll",
"lllBBBBBBlll700lll007111700llllllBBBBBBBBBBBBlll",
"lllBBBBBBlll000lll000111000llllllBBBBBBBBBBBBlll",
"000000lllBBBllllllllp112vBBBBBBBBllllll000000000",
"000000lllBBBlllllllll112BBBBBBBBBllllll000000000",
"777777pplvBvlllpppppi1:1vBvvvvBBvlppplp000777777",
"XXXXXX------111---XXX  XXXXXXX---------111---XXX",
"      $$$$$$111$$$            $$$$$$$$$111$$$   ",
"XXXXXX------111---XXXXXXXXXXXX---------222---XXX",
"vvBHHHHHHBBvlllpplHHHHHHHHHBvBHHHHHHHHHJLHBBv077",
"BBZLLLLLLZBBllllllLLLLLLLLLABALLLLLLLLLLLLZBB000",
"BBBLLLLLLBBBllllllJLLLLLLLJBBBLLLLLLLLLLLJBBv000",
"BBBlllBZBBBBBBBBBBlllu00000000lllu0ulllu00000211",
"BBBlllBBBBBBBBBBBBlll000700000llp000lll000007111",
"ZZBlllBBBBBBBBBBBBlll000000000llp000lll000000211",
"LLLBBBllllll000000000000pplllllllpll000000vBv000",
"LLLZBBllllll000000000000llllllllllll000000BBB000",
"HHHBvvlppllp000777777777pppppplllplp077770vBv077",
"XXXXXX---111111---XXXXXXXXX---111------XXXXXXXXX",
"      $$$111111$$$         $$$111$$$$$$         ",
"XXXXXX---222222---XXXXXXXXX---222------XXXXXXXXX",
"HHHBvvBBBHLLLLHBBBvBv070HHHHHHJLHlplHHHBvBHHHHHH",
"LLLZBBBBZLLLLLLZBBBBB000LLLLLLLLLlllLLLZBZLLLLLL",
"LLLBBBBBBLLLLLJBBBBBB000HLLLLLLLLlllLLLBBBLLLLLL",
"llllllBBBBZBu00000lll00000uBZZZZBBBBBZBlllllllll",
"llllllBBBBBB000000lll000000BBBBBBBBBBBBlllllllll",
"llllllBBBBBB000000lll077000BBBBBBBBBBBBlllllllll",
"lll000000lllBBBlll007212vBBBBBlll000000000000000",
"lll000000lllBBBlll000112BBBBBBlll000000000007770",
"ppp077770pplvBvlpp776112vBBBBvlpp077777777777777",
"XXX------XXXXXX---111111222---XXX---XXXXXXXXXXXX",
"   $$$$$$      $$$111111111$$$   $$$            ",
"   $$$$$$      $$-111111111-$$   $$$            "
};
