/* XPM */
static char *f3b5049cc79f4c6e902883b1dcc9928fRFtIgjkzZdoB7tjW[] = {
/* columns rows colors chars-per-pixel */
"48 48 104 2 ",
"   c #9E8A61",
".  c #9E8B61",
"X  c #9F8C62",
"o  c #9F8D62",
"O  c #A08D62",
"+  c #A08E63",
"@  c #A18E63",
"#  c #A18F64",
"$  c #A49366",
"%  c #A49367",
"&  c #A59367",
"*  c #A59467",
"=  c #A69567",
"-  c #A59468",
";  c #A59568",
":  c #A69568",
">  c #A69668",
",  c #A79668",
"<  c #A69669",
"1  c #A79669",
"2  c #A79769",
"3  c #A89668",
"4  c #A89669",
"5  c #A89769",
"6  c #A8976A",
"7  c #AD9E75",
"8  c #AE9E75",
"9  c #AE9F75",
"0  c #AE9F76",
"q  c #AF9F76",
"w  c #AFA075",
"e  c #AFA076",
"r  c #B0A076",
"t  c #B0A176",
"y  c #B1A176",
"u  c #B0A177",
"i  c #B1A177",
"p  c #B1A277",
"a  c #B6A674",
"s  c #B7A674",
"d  c #B7A774",
"f  c #B7A775",
"g  c #B7A875",
"h  c #B8A875",
"j  c #B9A875",
"k  c #B9A975",
"l  c #BAA975",
"z  c #B9A976",
"x  c #BAA976",
"c  c #B9AA76",
"v  c #BAAA76",
"b  c #BAAB76",
"n  c #BBAA77",
"m  c #BBAB77",
"M  c #C5B478",
"N  c #C5B479",
"B  c #C6B579",
"V  c #C7B579",
"C  c #C6B57A",
"Z  c #C6B67A",
"A  c #C7B67A",
"S  c #C8B77A",
"D  c #C9B77A",
"F  c #C8B77B",
"G  c #C9B77B",
"H  c #C9B87B",
"J  c #CAB87B",
"K  c #CAB97C",
"L  c #D2BD82",
"P  c #D3BD82",
"I  c #D2BD83",
"U  c #D3BD83",
"Y  c #D3BE83",
"T  c #D4BE83",
"R  c #D4BF83",
"E  c #D5BF83",
"W  c #D4BF84",
"Q  c #D5BF84",
"!  c #D5C084",
"~  c #D5C085",
"^  c #D6C084",
"/  c #D6C184",
"(  c #D6C185",
")  c #D7C185",
"_  c #D7C285",
"`  c #D7C286",
"'  c #D8C185",
"]  c #D8C285",
"[  c #D3C68A",
"{  c #D3C78A",
"}  c #D3C78B",
"|  c #D4C78A",
" . c #D4C78B",
".. c #D4C88B",
"X. c #D5C88B",
"o. c #D5C98B",
"O. c #D6C98B",
"+. c #D5C98C",
"@. c #D6C98C",
"#. c #D6CA8C",
"$. c #D7CA8C",
"%. c #D7CA8D",
"&. c #D7CB8D",
"*. c #D7CC8D",
/* pixels */
") ) ) J G J ) ) ) $.$.$.$.$.$.$.$.$.$.$.$.$.$.$.) ) ) $.$.$.$.$.$.$.$.$.$.$.$.$.$.$.) ) Q r 7 7 ",
") ) ) G G G ) ) ) $.$.$.$.$.$.$.$.$.$.$.$.$.$.$.) ) ) $.$.$.$.$.$.$.$.$.$.$.$.$.$.$.) ) Q r 7 7 ",
") ) ) J G J ) ) ) $.$.$.$.$.$.$.$.$.$.$.$.$.$.$.) ) ) $.$.$.$.$.$.$.$.$.$.$.$.$.$.$.) ) Y r 7 7 ",
") ) ) ) ) ) J G J J J G r r r m m m G J K ) ) ) ) ) ) ) ) ) K J J J J K ) ) ) ) ) ) m m m m g d ",
") ) ) ) ) ) G G G G G A e 7 7 d m m A G G ) ) ) ) ) ) ) ) ) G G G G G G ) ) ) ) ) ) m m m m d d ",
") ) ) ) ) ) J G J J J A r e r m m m A A G Q ) ) T T T ) ) Q G A A G G G ) ) ) ) ) ) m m m m d d ",
"J G J ) ) ) ) ) ) ) ) ) A A A Q ) Q G A A m m m m m m m m m m m m A G G G G J ) ) ) ) ) Y r 7 7 ",
"G G J ) ) ) ) ) ) ) ) ) J G J ) ) ) J A A m m m d d m m m m m m m A G G G G J ) ) ) ) ) ) r 7 7 ",
"A A A T T T T T T Q Q Q A A A T Q T A A M d d d d d d d d d d d d A A A A A A Y T T T Q Y e 7 7 ",
"e e e 5 - 5 5 5 5 r r r e e e 5 5 - O O X X X O * - - - - * O X O - - - O O O O O O - 5 - X X X ",
"7 7 7 - * * * * - 7 7 7 7 7 7 - * $ . . . . . . $ * * * * $ . . . $ * $ . . . . . . $ * $ . . . ",
"r r r 5 5 - - - - r r r e e r - 5 - # O O X X O - 5 5 5 5 - # O # - 5 - O O O O O O * - * O O O ",
"Q Q ) ....[ m d m [ $.$.$.$.$...........[ m d m [ .............. .Q T T A A A A A A m d m Y T T ",
") ) ) $.$.$.m m m $.$.$.$.$.$.$.$.$.$.*.$.m m m $.*.$.$.$.$.$.$.$.) ) ) J A A A G A m m m ) ) ) ",
") ) ) $.$...m m m ..$.$.$.$.$.$.$.$.$.$. .m d m  .$.$.$.$.$.$.$.$.) ) ) J G J G J G m m m Q ! T ",
"J G J ) ) ) ) ) Q J J G m m m G J G m m m e 7 e m m m G J J J J J ) ) ) ) ) ) ) ) ) ) ) Q G G G ",
"A G J ) ) ) ) ) ) G A A m m m A G A m m d 7 7 7 d m m A G G G G G ) ) ) ) ) ) ) ) ) ) ) ) J G A ",
"A A G Q ) ) ) ) ) J J G m m m A G A m m m e 7 e m m m G J J J G J ) ) ) ) ) ) ) ) ) ) ) Q G A A ",
"m m m m m m G J J ) ) ) G A A G G G A A A e 7 r Y ) ) ) ) ) ) ) ) J G J J J G m m m m m m m m m ",
"d d m m m m A G J ) ) ) J G G G G G G G A e 7 r ) ' ) ) ) ) ) ) ) J G G G G A m m m m g m m m m ",
"a d d d d d A A A T Q T A A A A A A A A A 7 7 e Y T T T T T T T T A A A A A A m d g d d d d d d ",
"X X X X X O - - - 5 5 5 e e e - - - O O O X X X O O O O O O - 5 5 - - - - - - 7 e 7 - - * O X X ",
". . . . . . $ * * * * - 7 7 7 - * $ . . . . . . . . . . . . $ * * * * * * * - 7 7 7 & $ $ . . . ",
"O O O O O # - 5 5 5 5 5 e e e - - - # O O O O O O O O O O # - 5 5 5 5 5 5 5 5 r e e 5 5 - O X X ",
"T T Q  ...........Q T T A A A A A A [ ..[ [ [ [ ..............................$.$...Q T Y m d d ",
") ) ) $.$.$.$.$.$.) ) ) J G G G G J $.$.$.$.$.$.$.$.$.$.$.$.$.$.$.$.$.$.$.$.$.$.$.$.) ) ) m m m ",
") ) ) $.$.$.$.$.$.) ) ) J G J J G J ..$...$.$.$.$.$.$.$.$.$.$.$.$.$.$.$.$.$.$.$.$...) Q T m d g ",
") ) ) J J K ) ) ) ) ) ) ) ) ) ) ) ) J J A m m m m m m m m m G J G m m m G J G m m m m m m e 7 7 ",
") ) ) G G G ) ) ) ) ) ) ) ) ) ) ) ) J G A m m m m m m m m m A G A m d m A G A m m m m m d 7 7 7 ",
") ) ) J G J ) ) ) ) ) ) T T T ) ) Q G A A m m m m m m m m m A G A m m m A A A m m m m m m e 7 7 ",
"$.$.$.) ) ) J G J J J G m m m m m m m m m d d m A A A A A A A A G A A A m m m d d m T ) T m d g ",
"$.$.$.) ) ) J G G G G A m d g m m m m m d d d m A G G A G A A A G A G A m m d d d m ) ) ) m m m ",
".... .Q T Y A A A A A A m d g d d d d d d d d d A A A A A A A A A A A A m d d d d m Y T Y m d d ",
"O O O O O O - - - e e e e e 7 - - * O X X X X X O O O - - - e e e - - - - - * O X X O O O X X X ",
". . . . . . $ $ - 7 7 7 7 7 7 - * $ . . . . . . . . . $ * - 7 7 7 - * * * * $ . . . . . . . . . ",
"O O O X X O - - 5 r r r r r r 5 5 - O O O X X X O O # - 5 5 r r r - - - - 5 - O O O O O O O O O ",
"....[ m d m Y T Q ..$.$.$.$...Q T T T T Y m d m [ ..........$.$.[ m d m [ ....Q T Q  ...........",
"$.$.$.m m m ) ) ) $.$.$.$.$.$.) ) ) ) ) Q m m m $.*.$.$.$.$.$.$.$.m m m $.$.$.) ) ) $.$.$.$.$.$.",
"$.$...m m m ) ) ) $.$.$.$.$...) Q Q Q ) Q m g m  .$.$.$.$.$.$.$...m m m ..$.$.) ) ) $.$.$.$.$.$.",
"J J J A A G ) ) ) ) ) ) m m m m m m A G A m d m m m m ) ) ) ) ) ) G A G ) ) ) J G J J J J J J J ",
"A A G G G J ) ) ) ) ) ) m g m m m m A G A m m m m m m ) ) ) ) ) ) J G J ) ) ) J G G G G A A A A ",
"A G G A A G Q ) ) ) ) Q m m m m m m A A A m d m m m m ) ) ) ) ) ) G A G Q ) Q G A A A A A A A A ",
"A A A m m m m m m G J J Q ) Q G A A m m m e 7 r Y ) ) ) ) ) J J G m m m m m m m m m m m m m m m ",
"A A A m m m m m m A G J ) ) ) J G A m m g 7 7 e Q ) ) ) ) ) J G A m g d g m m m m m m m m m m m ",
"A A A m d d d d m A A A Y Y Y A A A m g d 7 7 r Y Q Q Y T T A A A g d d d d d d d d d d d d d d ",
"O O O * - - - - * O O O O O O - - - 7 e 7 7 7 7 r e r - 5 - O O O * - * O X X X X X X X X X . . ",
". . . $ * * * * $ . . . . . . $ * - 7 7 7 7 7 7 7 7 7 - * $ . . . $ * $ . . . . . . . . . . . . ",
". . . * * * * * * . . . . . . * * - 7 7 7 7 7 7 7 7 7 - * * . . . * * * . . . . . . . . . . . . "
};
