/* XPM */
static char *a06cb97389a14aaff5700d390d1fb4de7OjXnGKg9cgIrKpK[] = {
/* columns rows colors chars-per-pixel */
"48 48 112 2 ",
"   c #664F2C",
".  c #66502C",
"X  c #67502C",
"o  c #68502C",
"O  c #68512C",
"+  c #68512D",
"@  c #69522D",
"#  c #6A522D",
"$  c #6A532E",
"%  c #6B532E",
"&  c #6B532F",
"*  c #6B542E",
"=  c #6B542F",
"-  c #6C542F",
";  c #6D552F",
":  c #7C6136",
">  c #7D6136",
",  c #7D6137",
"<  c #7D6237",
"1  c #7E6237",
"2  c #7F6237",
"3  c #7F6337",
"4  c #7F6338",
"5  c #806438",
"6  c #806439",
"7  c #816439",
"8  c #816539",
"9  c #826539",
"0  c #82653A",
"q  c #83663A",
"w  c #937240",
"e  c #947240",
"r  c #947340",
"t  c #957340",
"y  c #957341",
"u  c #957441",
"i  c #967441",
"p  c #967541",
"a  c #967542",
"s  c #977542",
"d  c #977642",
"f  c #987642",
"g  c #987643",
"h  c #997743",
"j  c #997744",
"k  c #9C814B",
"l  c #9D824C",
"z  c #9E824C",
"x  c #9E834C",
"c  c #9F834C",
"v  c #9E834D",
"b  c #9F834D",
"n  c #9F844D",
"m  c #A0844D",
"M  c #A0854D",
"N  c #A0854E",
"B  c #A1854E",
"V  c #A1864E",
"C  c #A1864F",
"Z  c #A2864E",
"A  c #A2864F",
"S  c #AA8A52",
"D  c #AB8B53",
"F  c #AB8C53",
"G  c #AC8C53",
"H  c #AC8D53",
"J  c #AD8D53",
"K  c #AD8D54",
"L  c #AD8E54",
"P  c #AE8E54",
"I  c #AE8E55",
"U  c #AF8E55",
"Y  c #AE8F55",
"T  c #AF8F55",
"R  c #AF8F56",
"E  c #B08F56",
"W  c #B28F5B",
"Q  c #B09056",
"!  c #B3905B",
"~  c #B3905C",
"^  c #B4905C",
"/  c #B4915C",
"(  c #B5915C",
")  c #B4915D",
"_  c #B5915D",
"`  c #B5925D",
"'  c #B6925D",
"]  c #B6925E",
"[  c #B6935E",
"{  c #B7935E",
"}  c #B7945E",
"|  c #B8945E",
" . c #B8945F",
".. c #B9945F",
"X. c #B9955F",
"o. c #BC985E",
"O. c #BC985F",
"+. c #BD995F",
"@. c #BE9A5F",
"#. c #BE9960",
"$. c #BE9A60",
"%. c #BF9A60",
"&. c #BF9B60",
"*. c #C09B60",
"=. c #C09B61",
"-. c #C09C61",
";. c #C19C61",
":. c #C19C62",
">. c #C19D62",
",. c #C29D62",
"<. c #C39D62",
"1. c #C39E62",
/* pixels */
" . . .T T T  . . .:.:.:.:.:.:.:.:.:.:.:.:.:.:.:. . . .:.:.:.:.:.:.:.:.:.:.:.:.:.:.:. . .( g s s ",
" . . .T T T  . . .:.:.:.:.:.:.:.:.:.:.:.:.:.:.:. . . .:.:.:.:.:.:.:.:.:.:.:.:.:.:.:. . .( g s s ",
" . . .Q T E }  . .:.:.:.=.=.=.:.:.:.:.:.:.:.:.:. . . .:.:.:.:.:.:.:.:.:.:.:.:.:.:.:.} ( ( g s s ",
" . . . . .} E T T Q Q T j g g A A A T Q Q  . . . . . . . . .Q Q Q Q Q Q  . . . . .} A A A b b b ",
" . . . . . .T T T T T T s s s b n A T T T  . . . . . . . . .T T T T T T  . . . . .( A n n n n n ",
" . . . . . .Q T T T E T g s g A A A T T T ( ( ( ( ( ( ( ( ( T T T T T T (  . . . .( A A A b b b ",
"T T Q  . . . . . . . .( T T T ( ( ( T T T A A A A A A A A A A A A T T T T T Q  . . .( ( ( g s s ",
"T T E  . . . . . . . . .E T E  . . .Q T T A n n n n n n n n n n A T T T T T E  . . . . .( g s s ",
"T T T ( ( ( ( ( ( ( ( ( T T T ( ( ( G F D b k k b b b b b b k k b G G G F F G ~ ( ~ ( ( ! s w t ",
"s s s 0 0 0 0 0 0 s g g s s s 0 0 0 - $ $ $ $ * 4 0 0 4 4 4 * $ * 4 0 4 - $ $ $ $ - 0 0 0 $ $ $ ",
"s s t 2 2 2 2 2 2 t s s s s t 2 2 2 $     . . $ 2 2 2 2 2 : $   $ 2 2 2 $         $ 2 2 2 $ . . ",
"g g s 0 0 0 0 0 0 s g g g g s 0 0 0 - - - $ $ * 0 0 0 0 0 0 - - - 0 0 0 - $ $ $ $ - 4 0 4 - $ $ ",
"( ( ( $.$.+.b b n +.=.=.=.=.=.$.$.$.+.+.+.b k b +.$.$.$.$.$.+.+.+.( ( ( G F F F F D b b b ~ ( ( ",
" . . .:.:.:.A n A :.:.:.:.:.:.:.:.:.:.:.:.A n A :.:.:.:.:.:.:.:.:. . . .E T T T T T A n A (  . .",
" .}  .:.:.=.A A A $.:.:.:.:.:.:.:.:.:.:.$.A b A $.:.:.:.:.:.:.:.:. . . .Q T T T E T A A A (  . .",
"T T Q  . . .( ( ( Q Q T A A A T Q T A A A s s s A A A T Q Q Q Q Q  . . . . . . . .} ( ( ( E T T ",
"T T T  . . . . . .T T T A n A T T T A n b s s s b n A T T T T T T  . . . . . . . . . . . .T T T ",
"T T T ( ( ( }  .} E T T A A A T T T A A n s s s A A A T E T T T E }  . . . .} ( ( ( ( ( ( T T T ",
"A A A A A A T T E }  .( T T T T T T T T T s s g ( ( ( }  . . . .} E T T T E T A A A A A A A A A ",
"n n n n n A T T E  . . .E T T T T T T T T s s g (  . . . . . . . .E T T T T T A n n n n n n n n ",
"k k k k k b G G T ( ( ( T T T G G G F F D t w s W ( ( ( ( ( ( ( ( T G G G G G n b b b b b k k k ",
"$ $ $ $ $ * 4 0 0 0 0 0 s s s 0 0 4 - $ $ $ $ $ $ * $ $ $ - 0 0 0 0 0 0 0 0 0 s s s 0 0 4 * $ $ ",
". . .     $ 2 2 2 2 2 2 t s t 2 2 2 $     . . .           . 2 2 2 2 2 2 2 2 2 t s t 2 2 2 $ . . ",
"$ $ * - - - 0 0 0 0 0 0 s s s 0 0 4 - - - - - - - - - - - - 0 0 0 0 0 0 0 0 0 s g s 0 0 0 * $ $ ",
"( ( ( +.+.+.$.$.$.( ( ( T T T G G T +.+.+.+.+.+.+.+.+.+.+.+.$.$.$.$.$.$.$.$.$.=.=.$.( ( ( b k k ",
" . . .:.:.:.:.:.:. . . .E T T T T Q :.:.:.:.:.:.:.:.:.:.:.:.:.:.:.:.:.:.:.:.:.:.:.:. . .( A n n ",
" . . .:.:.:.:.:.:. . . .Q T T T T Q :.:.:.:.:.:.:.:.:.:.:.:.:.:.:.:.:.:.:.:.:.:.:.=.} ( ( A b b ",
" . . .Q Q Q  . . . . . . . . . . .} Q Q T A A A A A A A A A T Q T A A A T Q T A A A A A A s s s ",
" . .} T T T  . . . . . . . . . . . .T T T n n n n n n n n A T T T n n n T T T A n n n n b s s s ",
" . . .Q T E }  . . . .} ( ( ( ( ( ( T T T A n n A A A A A A T T T A A A T T T A n n A A n s s s ",
":.:.:. . .} E T T T E T A A A A A A A A A n n A T T T T T T T T T T T T A A A n n A ( ( ( n b b ",
":.:.:. . . .E T T T T T A n n n n n n n n n n A T T T T T T T T T T T T A n n n n A }  .} A n n ",
"+.+.+.( ( ~ T G G T T T n b b b b b k k k k k b D F F G G G T T T G G G b b b k k b ! ( ! b k k ",
"- - - * $ - 4 0 0 s s s s s s 0 0 4 * $ $ $ $ $ $ $ - 4 0 0 s s s 0 0 0 0 0 4 * $ $ $ * $ $ $ $ ",
"      .   $ 2 2 2 t s s s s t 2 2 2 $   . . . .     $ 2 2 2 t s t 2 2 2 2 2 2 $   .             ",
"- - - $ $ * 0 0 0 s g g g g s 0 0 0 - $ $ $ $ $ - - - 0 0 0 s g s 0 0 0 0 0 0 - $ * - - - - - - ",
"+.+.+.b k b ( ( ( $.=.=.=.=.$.( ( ( ( ( ! b k b +.+.+.$.$.$.=.=.+.n b b +.$.$.( ( ( +.+.+.+.+.+.",
":.:.:.A n A (  . .:.:.:.:.:.:. . . . . .( A n A :.:.:.:.:.:.:.:.:.A n A :.:.:. . . .:.:.:.:.:.:.",
":.:.$.A A A (  . .:.:.:.:.:.=.} ( ( }  .( A n A $.:.:.:.:.:.:.:.=.A A A =.:.:. .}  .:.:.:.:.:.:.",
"Q Q Q T T T }  . . . .} A A A A A A T E T A n n A A A }  . . . . .T T T  . . .Q T T Q Q Q Q Q Q ",
"T T T T T T } }  . . .( A n n n n A T T T n n n n n A (  . . . . .E T E  . . .T T T T T T T T T ",
"T T T T T T ( ( ( }  .( A A A A A A T T T n b b A A A (  . . . .( T T T ( ( ( T T T T T T T T T ",
"T T T A A A A n A T T E ( ( ( T T T A A n s s s ( ( (  . . .Q T T A A A A A A A A A A A A A A A ",
"T T T A n n n n A T T Q  . . .E T T A n b s s g (  . . . . .E T T A n n n n n n n n n n n n n n ",
"F F D b b b b b b D F G ~ ( ~ T G G n b b s s g ( ( ( ( ( ( G F D b b b k k k k k k k k k k k k ",
"$ $ - 4 0 0 4 0 4 - $ $ $ $ - 4 0 0 s s s s s s g g s 0 0 0 - $ - 4 0 4 * $ $ $ $ $ $ $ $ $ $ $ ",
". . $ 2 2 2 2 2 2 $ . . . . $ 2 2 2 t s s s s s s s t 2 2 2 $ . $ 2 2 2 $ . . . . . . . . . . . ",
". . $ 2 2 2 2 2 2 $ . . . . $ 2 2 4 t s s s s s s s t 4 2 2 $ . $ 2 2 2 $ . . . . . . . . . . . "
};
