/* XPM */
static char *_33b8ceb2fa94142ea8ef456e00de31b34XgRBJWUemVdfSm[] = {
/* columns rows colors chars-per-pixel */
"48 48 74 1 ",
"  c #553A1F",
". c #553B1F",
"X c #563B20",
"o c #573C20",
"O c #583C20",
"+ c #583C21",
"@ c #583D21",
"# c #594324",
"$ c #5A4324",
"% c #5A4424",
"& c #5B4424",
"* c #5B4524",
"= c #5A4425",
"- c #5B4525",
"; c #5C4525",
": c #5C4625",
"> c #5C4626",
", c #5D4626",
"< c #604A2D",
"1 c #604B2D",
"2 c #614B2D",
"3 c #614B2E",
"4 c #624B2E",
"5 c #624C2E",
"6 c #634C2E",
"7 c #634C2F",
"8 c #644D2F",
"9 c #6E512D",
"0 c #6F512D",
"q c #6E512E",
"w c #6F512E",
"e c #6F522E",
"r c #70522E",
"t c #71522E",
"y c #71532E",
"u c #70522F",
"i c #70532F",
"p c #71532F",
"a c #72532F",
"s c #72542F",
"d c #765634",
"f c #765635",
"g c #775735",
"h c #775833",
"j c #785833",
"k c #785933",
"l c #795933",
"z c #795934",
"x c #795A34",
"c c #7A5A34",
"v c #7B5A34",
"b c #7B5B34",
"n c #7B5B35",
"m c #785836",
"M c #795936",
"N c #7E5E38",
"B c #7F5E38",
"V c #7F5F38",
"C c #7F5F39",
"Z c #805F39",
"A c #846237",
"S c #856237",
"D c #806039",
"F c #816039",
"G c #81603A",
"H c #82613A",
"J c #83613A",
"K c #856338",
"L c #866338",
"P c #866438",
"I c #876438",
"U c #876439",
"Y c #876539",
"T c #886539",
/* pixels */
"HHHnnnHHHTTTTTTTTTTTTTTTHHHTTTTTTTTTTTTTTTHHH544",
"HHHnnnHHHTTTTTTTTTTTTTTTHHHTTTTTTTTTTTTTTTHHH544",
"HHHnnnHHHYYYYYYYYYYYYTTYHHHYTTYYYYYYTTTTTYHHC544",
"HHHHHHnnnnnn858pppnnnHHHHHHHHHnnnnnnHHHHHHspp000",
"HHHHHHnnnnnn5440ppnnnHHHHHHHHHnnnnnnHHHHHHpppppp",
"HHHHHHnnnnnn855pppnnnHHHHHHHHHnnnnnnHHHHHHspp000",
"nnnHHHHHHHHHnnnHHHnnnppppppppppppnnnnnnHHHHHC544",
"nnnHHHHHHHHHnnnHHHnnn000pppppppppnnnnnnHHHHHH544",
"nnnZHHHHHHHHnnnZHCddd000000000000kkkkkkCZZZHC444",
"554>>>>>>555554>>>oooXXo%%%%%%oXo%>%oooooO>>>XXX",
"444%%%%%%444444%%#      #%%%%#   #%#      #%#   ",
"555>>>%%>555555>>>OOOXXo>>>>>>OOO>>>oooooo%%%Ooo",
"HHHKKAp0pKYYYYYKKKKKAp0pAKKKKKKKKHHZkkkkkk00pCZZ",
"HHHTTYpppYTTTTTTTTTTYpppYTTTTTTTTHHHnnnnnnpppHHH",
"HHHYTYspsYYYYYYYYYYYKp0pKYYYYYYYYHHHnnnnnnpppHHH",
"nnnHHHHHHnnnpppnnnppp545pppnnnnnnHHHHHHHHHHHHnnn",
"nnnHHHHHHnnn0ppnnnpp04440ppnnnnnnHHHHHHHHHHHHnnn",
"nnnHHHHHHnnnpppnnnppp444pppnnnnnnHHHHHHHHHHHHnnn",
"ppppppnnnHHHnnnnnnnnk545CHHHHHHHHnnnnnnppppppppp",
"ppppppnnnHHHnnnnnnnnn545HHHHHHHHHnnnnnnppppppppp",
"000000kkkZHZnnnkkkkkh444CZZZZZZHZkkkkkkp00000000",
"XXXXXo%>>>>>454>>%oooXXXoooooO>>>>>>>>>444%%%oXX",
"      #%%%%%444%%#            #%%%%%%%%444%%#   ",
"oooOOO>>>>>>454>>%OOOOOOOOOOOO>>>>>>>>>555>>>oXX",
"ZZZKKKKKKHHZnnnkkkAKKKKKKKKKKKKKKKKKKKKYYKHHCp00",
"HHHTTTTTTHHHnnnnnnTTTTTTTTTTTTTTTTTTTTTTTTHHHppp",
"HHHYYYTTYHHHnnnnnnYYYYYYYYYYYYYYYYYYYYYYYYHHZp00",
"HHHnnnHHHHHHHHHHHHnnnpppppppppnnnpppnnnpppppp544",
"HHHnnnHHHHHHHHHHHHnnnpppppppppnnnpppnnnppppp0444",
"HHHnnnHHHHHHHHHHHHnnkpppppppppnnnpppknkpppppp544",
"TTYHHHnnnnnnpppppppppp0pknnnnnnnnnnkppppppZHZp00",
"TTTHHHnnnnnnppppppppppppnnnnnnnnnnnnppppppHHHppp",
"KKKZZCkkknnkp00000000000kkkkkknnnkkk000000CZC000",
"OOOooO%>>455444%%%oXXXXXooo%>>454>>>%%%oXXoooXXX",
"      #%%444444%%#         #%%444%%%%%#         ",
"OOOXXo>>>555555>>>OooXXXOOO>>>555>%%>>>OooOOOOOO",
"KKAp0pCHHKYYYYKHZZZZC00pAKKKKKYYKp0pAKKZZZKKKKKK",
"TTYpppHHHTTTTTTHHHHHHpppYTTTTTTTYpppYTTHHHTTTTTT",
"YYYpppHHHYTTYYYHHHHHHpppKYYTTTTTYpppYTYHHHYYYYYY",
"nnnnnnHHHHHHspppppnnnpppppsHHHHHHnnnHHHnnnnnnnnn",
"nnnnnnHHHHHHppppppnnnppppppHHHHHHnnnHHHnnnnnnnnn",
"nnnnnnHHHHHHppppppknkp00ppsHHHHHHnnnHHHnnnnnnnnn",
"nnnppppppnnnHHHnnkppp545CHHHHHnnnppppppppppppppp",
"nnnppppppnnnHHHnnnpp0445HHHHHHnnnppppppppppp0000",
"kkk000000kkkCZCkkkp00445CHHHHZkkk000000000000000",
"ooo%%%%%%oooooO%>>444444555>>>ooo%%%oXXXXXXXXXXX",
"   #%%%%#      #%%444444444%%#   #%#            ",
"   #%%%%#      #%%444444444%%#   #%#            "
};
